/* XPM */
static char * AB_krell_xpm[] = {
"10 5 40 1",
" 	c None",
".	c #454948",
"+	c #2B262B",
"@	c #2E3032",
"#	c #23252B",
"$	c #202420",
"%	c #4A5751",
"&	c #57605E",
"*	c #686B6F",
"=	c #747976",
"-	c #828888",
";	c #929698",
">	c #818B87",
",	c #2D2D2D",
"'	c #49484A",
")	c #414641",
"!	c #404443",
"~	c #4D504D",
"{	c #545859",
"]	c #5B5D62",
"^	c #5A5D5E",
"/	c #535A57",
"(	c #57575A",
"_	c #404347",
":	c #3D3D3D",
"<	c #363A3A",
"[	c #383838",
"}	c #37393F",
"|	c #394140",
"1	c #444548",
"2	c #414544",
"3	c #373B3F",
"4	c #3C3E43",
"5	c #3E4346",
"6	c #3F4040",
"7	c #35343B",
"8	c #393A40",
"9	c #36383D",
"0	c #3B3D3D",
"a	c #252D2D",
"   .+@#   ",
" $%&*=-;> ",
",')!~{]^/(",
"_:<[}|1234",
" 5678980a "};
