/* XPM */
static char * center_button_xpm[] = {
"10 20 80 1",
" 	c None",
".	c #2D3231",
"+	c #100B10",
"@	c #141618",
"#	c #080A10",
"$	c #495253",
"%	c #000508",
"&	c #565E61",
"*	c #9BA1A6",
"=	c #A3AAAE",
"-	c #B2B9BD",
";	c #777C85",
">	c #171B17",
",	c #050905",
"'	c #33423B",
")	c #424D4B",
"!	c #575B60",
"~	c #666C68",
"{	c #787F7F",
"]	c #8C9193",
"^	c #76837E",
"/	c #444C4C",
"(	c #272927",
"_	c #373537",
":	c #363936",
"<	c #424444",
"[	c #4E5652",
"}	c #555E5D",
"|	c #5F6568",
"1	c #5A6463",
"2	c #212526",
"3	c #121212",
"4	c #323133",
"5	c #292E29",
"6	c #272C2B",
"7	c #363A36",
"8	c #3F4344",
"9	c #47494F",
"0	c #464A4B",
"a	c #3E4642",
"b	c #424246",
"c	c #100C18",
"d	c #292925",
"e	c #292429",
"f	c #1D221D",
"g	c #293029",
"h	c #313635",
"i	c #313A39",
"j	c #393A39",
"k	c #313339",
"l	c #31333A",
"m	c #272B2F",
"n	c #242424",
"o	c #1C2121",
"p	c #1E1E1E",
"q	c #1D2026",
"r	c #202927",
"s	c #2C2D31",
"t	c #282D2C",
"u	c #1D2226",
"v	c #23252B",
"w	c #141A1C",
"x	c #16191F",
"y	c #171B20",
"z	c #1F2026",
"A	c #202027",
"B	c #212127",
"C	c #212229",
"D	c #182121",
"E	c #252B2E",
"F	c #262727",
"G	c #1B1A22",
"H	c #1F2127",
"I	c #1C1E24",
"J	c #222424",
"K	c #0A1312",
"L	c #131217",
"M	c #312F2E",
"N	c #2C3430",
"O	c #2C2A2C",
"   .+@#   ",
" $%&*=-;> ",
" ,')!~{]^ ",
"/(_:<[}|12",
"34567890ab",
"cdefghijkl",
"mnopqrstuv",
" wxyzABCD ",
" EFGHIHJK ",
"   LMNO   ",
"   LMNO   ",
" EFGHIHJK ",
" wxyzABCD ",
"mnopqrstuv",
"cdefghijkl",
"34567890ab",
"/(_:<[}|12",
" ,')!~{]^ ",
" $%&*=-;> ",
"   .+@#   "};
