/* XPM */
static char * rim_button_xpm[] = {
"20 40 223 2",
"  	c None",
". 	c #313829",
"+ 	c #6B6163",
"@ 	c #737163",
"# 	c #736D6B",
"$ 	c #63615A",
"% 	c #181810",
"& 	c #2F3227",
"* 	c #CCCDCC",
"= 	c #F5F5ED",
"- 	c #E8ECE8",
"; 	c #F8F8F7",
"> 	c #D9D6D1",
", 	c #F7F0EF",
"' 	c #E4E4DC",
") 	c #A6A6A6",
"! 	c #020202",
"~ 	c #121912",
"{ 	c #AAA8A3",
"] 	c #DCDCDB",
"^ 	c #DDE2DD",
"/ 	c #9FA097",
"( 	c #696162",
"_ 	c #888A81",
": 	c #9B9993",
"< 	c #7A7B72",
"[ 	c #A49FA3",
"} 	c #F7F7F7",
"| 	c #DEDEDE",
"1 	c #363836",
"2 	c #080C07",
"3 	c #0C0F0C",
"4 	c #737673",
"5 	c #EEE7E6",
"6 	c #A2A7A2",
"7 	c #595D59",
"8 	c #6A6C69",
"9 	c #686C67",
"0 	c #4B4642",
"a 	c #717670",
"b 	c #6B6663",
"c 	c #797779",
"d 	c #494F49",
"e 	c #B8BCB8",
"f 	c #E1E2E1",
"g 	c #464946",
"h 	c #0B110B",
"i 	c #515351",
"j 	c #DAE0DA",
"k 	c #949492",
"l 	c #4B4C4B",
"m 	c #696F69",
"n 	c #55584F",
"o 	c #65615D",
"p 	c #484A40",
"q 	c #434343",
"r 	c #51524F",
"s 	c #5F645F",
"t 	c #5E5A5E",
"u 	c #6B686B",
"v 	c #A9B1B0",
"w 	c #AFB0AF",
"x 	c #2E3235",
"y 	c #1F1E19",
"z 	c #A6ACA6",
"A 	c #9F9F9F",
"B 	c #5C5F5C",
"C 	c #525A52",
"D 	c #545554",
"E 	c #3F423D",
"F 	c #414548",
"G 	c #4C4D4C",
"H 	c #676A67",
"I 	c #6F7071",
"J 	c #ADABAD",
"K 	c #7D8080",
"L 	c #121512",
"M 	c #4B4849",
"N 	c #A6AFA6",
"O 	c #565456",
"P 	c #525252",
"Q 	c #545D54",
"R 	c #5F605F",
"S 	c #525352",
"T 	c #7C827C",
"U 	c #B7B2B7",
"V 	c #1C1F1C",
"W 	c #1B1C1B",
"X 	c #6A6765",
"Y 	c #818B87",
"Z 	c #424142",
"` 	c #4D5452",
" .	c #525452",
"..	c #454C4A",
"+.	c #4F5054",
"@.	c #505350",
"#.	c #B6B6BB",
"$.	c #2B2E31",
"%.	c #292E29",
"&.	c #181D18",
"*.	c #73736B",
"=.	c #5F6362",
"-.	c #4C524C",
";.	c #454E4D",
">.	c #5C5D5F",
",.	c #383C38",
"'.	c #858689",
").	c #363E3E",
"!.	c #171A1C",
"~.	c #212721",
"{.	c #6F736B",
"].	c #403D40",
"^.	c #4E544E",
"/.	c #3D4541",
"(.	c #5E5E63",
"_.	c #353D3A",
":.	c #424746",
"<.	c #0C1214",
"[.	c #202620",
"}.	c #5E615E",
"|.	c #2D2E2D",
"1.	c #4A4B4A",
"2.	c #3E4342",
"3.	c #4A4D4E",
"4.	c #3E4042",
"5.	c #101818",
"6.	c #1C1E18",
"7.	c #434240",
"8.	c #303534",
"9.	c #464B46",
"0.	c #42474A",
"a.	c #393D3D",
"b.	c #3E4142",
"c.	c #4E5756",
"d.	c #262A2A",
"e.	c #272A2C",
"f.	c #2E2C29",
"g.	c #313029",
"h.	c #393C3E",
"i.	c #353D38",
"j.	c #3B4243",
"k.	c #545A5C",
"l.	c #4D4E50",
"m.	c #3D4245",
"n.	c #393A3E",
"o.	c #434D4C",
"p.	c #121315",
"q.	c #4A4B4D",
"r.	c #282A23",
"s.	c #393939",
"t.	c #1E2123",
"u.	c #3F4245",
"v.	c #444B49",
"w.	c #393D3F",
"x.	c #48514D",
"y.	c #313839",
"z.	c #16191C",
"A.	c #202420",
"B.	c #343034",
"C.	c #1D201D",
"D.	c #4E4B4E",
"E.	c #3E3C3E",
"F.	c #424642",
"G.	c #676867",
"H.	c #656765",
"I.	c #424542",
"J.	c #3E473E",
"K.	c #2F3631",
"L.	c #1E2C27",
"M.	c #363839",
"N.	c #2F2E2F",
"O.	c #252425",
"P.	c #333533",
"Q.	c #464246",
"R.	c #3D3C3D",
"S.	c #625F62",
"T.	c #626462",
"U.	c #565156",
"V.	c #353F35",
"W.	c #444844",
"X.	c #353835",
"Y.	c #252B2B",
"Z.	c #252E2B",
"`.	c #323232",
" +	c #363536",
".+	c #423F42",
"++	c #4F4D4F",
"@+	c #414141",
"#+	c #272B27",
"$+	c #292929",
"%+	c #3E3B3E",
"&+	c #474B47",
"*+	c #454B45",
"=+	c #313731",
"-+	c #222722",
";+	c #484B48",
">+	c #323332",
",+	c #1B1A1B",
"'+	c #292829",
")+	c #3D433D",
"!+	c #575357",
"~+	c #595B59",
"{+	c #5B605B",
"]+	c #616361",
"^+	c #656665",
"/+	c #4F4B4F",
"(+	c #313532",
"_+	c #2B2F2C",
":+	c #121D12",
"<+	c #414441",
"[+	c #2B2A2B",
"}+	c #232223",
"|+	c #151C15",
"1+	c #2E2A2E",
"2+	c #272727",
"3+	c #1B181B",
"4+	c #131713",
"5+	c #2E3936",
"6+	c #111918",
"7+	c #393839",
"8+	c #181C18",
"9+	c #182018",
"0+	c #313431",
"              . + @ # $ %               ",
"          & * = - ; > , ' ) !           ",
"      ~ { ] ^ / ( _ : < [ } | 1 2       ",
"    3 4 5 6 7 8 9 0 a b c d e f g h     ",
"    i j k l m n o p q r s t u v w x     ",
"  y z A B C D E         F G H I J K L   ",
"  M N O P Q                 R S T U V   ",
"W X Y Z `  .                ..+.@.#.$.%.",
"&.*.=.-.;.                    >.,.'.).!.",
"~.{.].^./.                    (._.D :.<.",
"[.}.|.1.2.                    3.2.3.4.5.",
"6.7.8.9.0.                    a.b.c.d.e.",
"f.g.h.i.j.k.                l.m.n.o.p.q.",
"  r.s.t.u.v.                w.x.1 y.z.  ",
"  A.B.C.D.E.F.G.        H.I.J.1.K.L.M.  ",
"    N.O.P.Q.F.R.9.S.T.U.V.W.W.X.Y.Z.    ",
"    Z W `. +.+++@+#+$+%+&+*+=+-+A.;+    ",
"      >+,+'+)+!+~+{+]+^+/+(+_+:+<+      ",
"          [+}+|+}+1+2+3+4+5+6+          ",
"              Z 7+8+9+7+0+              ",
"              Z 7+8+9+7+0+              ",
"          [+}+|+}+1+2+3+4+5+6+          ",
"      >+,+'+)+!+~+{+]+^+/+(+_+:+<+      ",
"    Z W `. +.+++@+#+$+%+&+*+=+-+A.;+    ",
"    N.O.P.Q.F.R.9.S.T.U.V.W.W.X.Y.Z.    ",
"  A.B.C.D.E.F.G.        H.I.J.1.K.L.M.  ",
"  r.s.t.u.v.                w.x.1 y.z.  ",
"f.g.h.i.j.k.                l.m.n.o.p.q.",
"6.7.8.9.0.                    a.b.c.d.e.",
"[.}.|.1.2.                    3.2.3.4.5.",
"~.{.].^./.                    (._.D :.<.",
"&.*.=.-.;.                    >.,.'.).!.",
"W X Y Z `  .                ..+.@.#.$.%.",
"  M N O P Q                 R S T U V   ",
"  y z A B C D E         F G H I J K L   ",
"    i j k l m n o p q r s t u v w x     ",
"    3 4 5 6 7 8 9 0 a b c d e f g h     ",
"      ~ { ] ^ / ( _ : < [ } | 1 2       ",
"          & * = - ; > , ' ) !           ",
"              . + @ # $ %               "};
